<svg id="svg576" xmlns="http://www.w3.org/2000/svg" viewBox="0 0 550.03 227.49"><defs><style>.cls-1{fill:#fff;}</style></defs><title>bear-with-lawn-white</title><path class="cls-1" d="M550,216.1c-0.08-1-.27-1.29-0.91-1.52a11,11,0,0,1-5.81-3,2.66,2.66,0,0,0-1-.52c-0.8-.67-1.52-1.41-2.37-2a1.52,1.52,0,0,0-1.12-.52,9.91,9.91,0,0,1-3.21-.82,2.31,2.31,0,0,0-1.06-1.28,2,2,0,0,1-1.31-1.76,5.22,5.22,0,0,0-1.5-.85,2.05,2.05,0,0,0-1.19-.3,0.72,0.72,0,0,1-.69-0.52,3.78,3.78,0,0,1-.44-1.1,1.52,1.52,0,0,0-.75-1.34c-0.46-.2-0.59-0.63-1.22-0.37a7.15,7.15,0,0,0-1.78.67,2.46,2.46,0,0,1-1.34.12h-1.22a9,9,0,0,0-1.81-2.07,2.21,2.21,0,0,1-.66-0.49,1.09,1.09,0,0,0-1-.46,3.37,3.37,0,0,1-1.34-1.86,2.41,2.41,0,0,0-1.62,0c0,0.34-1,.49-1.37.21a1.48,1.48,0,0,1-.34-0.49,0.71,0.71,0,0,0-.53-0.46l-0.84-.24a1.68,1.68,0,0,0-1.59.18,7.82,7.82,0,0,1-.75.52,2.18,2.18,0,0,0-.56.67,1.32,1.32,0,0,1-1-.27,3,3,0,0,1-.69-0.67c-2.45,1-1.84-4.44-3.14-1.94q0-4.39-2.47-3.31a7.21,7.21,0,0,0-1.25,1.58c-0.67,1.21-.87-1.67-2.12-1.07-0.57.95-1.29,2.37-2.56,1.7a3.19,3.19,0,0,1,.44-2.43l0.28-.46-0.28-.73c-0.35-.46-0.5-1.21-1-1.25a2,2,0,0,0-1.53,1c-0.26.25-.28,0.83-0.78,0.76,0,0.22-.4.08-0.75-0.27a1.36,1.36,0,0,0-.5-0.37,20.54,20.54,0,0,1-2.46,2.19,2.06,2.06,0,0,1-.62-0.79,0.92,0.92,0,0,1-.09-1.06,0.81,0.81,0,0,0,.13-0.91c-0.28-.51-0.3-1.1-1-1.28-0.28,0-.48-0.39-0.59-1.16a1.48,1.48,0,0,1,.13-0.94,2.91,2.91,0,0,0-1.25-2.31,2.24,2.24,0,0,0-.78,1.22,2.56,2.56,0,0,1-.84.79c-0.47.5-.92,0.24-1.28-0.73a1.45,1.45,0,0,0-.84-1.13,0.62,0.62,0,0,0-.72.49,11.49,11.49,0,0,1-.69,5.51,1.13,1.13,0,0,1-1.28-.91,0.72,0.72,0,0,0-.34-0.52,2.64,2.64,0,0,0-1.59-1.32,5,5,0,0,1-1.9,2.82,5.22,5.22,0,0,1-2.34,1c-4.24,2.68-8.2,5.51-12.21,8.48-5.79,4.12-22.53,5-27.89,1.53a8.31,8.31,0,0,1-2-.37h-0.14l-0.18-.06a4,4,0,0,1-1.92.48,7.2,7.2,0,0,1-3.07.82,5.39,5.39,0,0,1-.76-0.06,5.27,5.27,0,0,1-2.75-1.29,5.19,5.19,0,0,1-3.2-2.37q-5.78-5.23,1-11.68l0.43-.42a14.61,14.61,0,0,1,2.35-1.91,6.2,6.2,0,0,1,.45-0.68l-1-.07-0.25-.33c-0.36-.45-0.69-0.52-0.91-0.21a0.33,0.33,0,0,1-.44.15,1.42,1.42,0,0,1-.84-0.76l-1.25-.49-1.56.12a2.1,2.1,0,0,0-.85-1l-1.16.58-0.5.4h-0.44q-1.34-2.32-2.72-.82l-1.12.09L411,178.27l-1.28-.27-0.19.37-0.62.76-0.44.24-1-.64L406,179l-1.44-.67-1-1.13-0.91-.33-1.06.33-0.78-.55-0.66-1-1.53,1.43-0.72-.37-0.9-.31-0.75.46-1,1.86-3.41.3-0.28-1.95-0.25-.88-0.53.58H390l-2.81-.33a2.19,2.19,0,0,0-1.6-2.47l-1.44,1.89-0.53.33-0.5-.06-0.44-.64L381.9,175l-1.06.64-1,1.13-0.47.4-1.09.24-0.22-.58-0.06-1-0.22-1.36a5.31,5.31,0,0,1-1.6.58q-2.6,3.6-2.53,1.78l-0.24.33a5.87,5.87,0,0,1-2.9,4.32,5.31,5.31,0,0,1-1.94,3,5.16,5.16,0,0,1-1.87.89,7.44,7.44,0,0,0-.55.61l-0.08.13a8.1,8.1,0,0,1-1.36,1.67v0.05a14.44,14.44,0,0,1-2.29,2.89l-0.14.11c-0.17.24-.34,0.44-0.47,0.61a8.65,8.65,0,0,1-.44,1q1.12,5.68-5.27,6.73a6.94,6.94,0,0,1-1.18-.1l-0.54.06a6.88,6.88,0,0,1-2.08.58h0c-0.93.24-1.81,0.42-2.69,0.58a9.89,9.89,0,0,1-1.71.15c-3,0-5.85.46-8.84,0.07a14.87,14.87,0,0,1-3.59.5H335a3.57,3.57,0,0,0-1.45.31l-0.11.05a7.42,7.42,0,0,1-3,.81,5,5,0,0,1-3.19-.07c-0.32-.12-0.62-0.25-0.92-0.38a13,13,0,0,1-3.83.5h-0.3a7.31,7.31,0,0,1-1.39-.14,7.47,7.47,0,0,1-1.89.25,6.91,6.91,0,0,1-1.33-.13l-5.57-2a6.5,6.5,0,0,1-3,.8,5.55,5.55,0,0,1-3.12-1,5.53,5.53,0,0,1-1,.1,5.29,5.29,0,0,1-2.42-.58h-0.28a5.37,5.37,0,0,1-2.63-.68H299.3a5,5,0,0,1-4.88-3.9,1.17,1.17,0,0,0-.08-0.42,5.39,5.39,0,0,1-.77-2.53H293.4a5.45,5.45,0,0,1-2.57,1.49,6.29,6.29,0,0,1-1.66.22,6.75,6.75,0,0,1-.79,0,5,5,0,0,1-2.13,1,5.22,5.22,0,0,1-2.9-.26,6,6,0,0,1-2.13-.25,6.37,6.37,0,0,0-2.38.21h-0.49a5.85,5.85,0,0,1-2.59-.62,7.15,7.15,0,0,1-1.94.25h-1a11.18,11.18,0,0,1-1.6.48,13.55,13.55,0,0,1-1.68.23h-0.45a7.61,7.61,0,0,1-2.28.35q-1.83-.07-3.65-0.32h-0.07a5.93,5.93,0,0,1-1.29.14h-0.35a7.35,7.35,0,0,1-1.4-.23,5.12,5.12,0,0,1-4.08,2,5.81,5.81,0,0,1-2.61-.65h-0.2a5.4,5.4,0,0,1-3.89-1.59,5.93,5.93,0,0,1-2.63-5.67,5.44,5.44,0,0,1,.75-4.68h0a20.92,20.92,0,0,1,7.6-8.81l0.25-.23a6,6,0,0,1-.17-0.61c-1,.33-2.55,1.83-4,1.25-1.37-1.28-3.25,1-4.94.55,0.31,0.23-5.47-4.8-5.35-3.25a1.12,1.12,0,0,0-.81-0.49h0c-0.66,0-.94,1.38-1.53,1.79-1.87,1.87-18,2.49-17.41,1,1-.76-0.25-3-1-1.52-1,.2-0.35.84-1.22,0.94-1,.85-0.87-0.05-1-0.81a6.24,6.24,0,0,1-.94.37,10.2,10.2,0,0,1-4.26,3.13,7.9,7.9,0,0,0-4.84,3.77,6.88,6.88,0,0,1-2.38,2.31,7.66,7.66,0,0,1-.91,1.24,8.31,8.31,0,0,1-2.84,2l-0.14.07a11.81,11.81,0,0,1-5,4.29l-6.3,4.41a5.17,5.17,0,0,1-1.8,1.33,5.21,5.21,0,0,1-3.43,1.94,5.57,5.57,0,0,1-.6,0l-0.3.27a5.6,5.6,0,0,1-.92.63,5.21,5.21,0,0,1-3.89,1.64h0a6.85,6.85,0,0,1-1,.73l-0.29.31a11.47,11.47,0,0,1-7.73,3.17,6.5,6.5,0,0,1-1.09-.28,58.76,58.76,0,0,0-9.32.55,6.79,6.79,0,0,1-1.41-.15,7.75,7.75,0,0,1-3.12.67H155a8.36,8.36,0,0,1-2.23.79h-0.13a7.8,7.8,0,0,1-2.26.37,6.38,6.38,0,0,1-1.85-.27l-0.18-.06h-0.68a10.67,10.67,0,0,1-4.2-.75,8.48,8.48,0,0,1-1.63-.94c-1.86,0-3.63,1.36-5.33,1.37a5.33,5.33,0,0,1-1.64-.26,5.42,5.42,0,0,1-2.6-1.81,9.17,9.17,0,0,1-3.57.9,5.47,5.47,0,0,1-1.69-.26,5.56,5.56,0,0,1-2.08-1.21h-0.49a5.17,5.17,0,0,1-3.82-1.69,5.33,5.33,0,0,1-1.32-4.18,5.92,5.92,0,0,1,1.55-3.4,5.68,5.68,0,0,1,.52-2.13,5.29,5.29,0,0,1,.49-0.83,5.9,5.9,0,0,1-4-1.48l-0.41-.52h-1.06l-1.19.61-0.91-.3-1.5.15-1.91.73-1-.21-1.19.12-0.66.33-0.44-.27,0.09-.76-0.12-1.25h-1q-0.81,2.85-3.09,2.49-0.84-1.65-2.22-1.07l-0.25.33a4.46,4.46,0,0,1-3.37,2.6l-1-.33-0.56-.33-0.94.88-0.72,1.46-0.78.61-2,.55-0.75-.3-0.56-1-2.12.37-0.59.46-0.5.12a2.84,2.84,0,0,0-2.62-2.19,3.79,3.79,0,0,1-3.3.49l-0.25,1,0.22,0.4,0.56,1.55-0.53.79-1.47.49-0.25.64-0.56.64c-2.42.67-4.86,1.36-7.27,1.85l-0.56-.21-0.91.4-1.31.21L68,201.22,66.32,200l-0.87.7-1.85,2.1-1.78-.24-0.31-1.16-0.75-1-0.75.49-0.41.7-0.6,0-0.31-1-0.06-.79H58l-0.81.7-0.66,1.16-0.5.27-0.56-.58q0.36-2.45-1.56-2.32a10,10,0,0,1-1.43,4.61L52,203.34l-0.37-.55-0.72-1.7H50l-0.28,1.37-0.81,1.4-2.66,3-2.12.33-0.94-2.34-0.41-.12-0.31.58-0.62,2-0.94.21-1.44.18-0.72.49-0.66.06-0.19-.55-0.53-1-0.72.82-0.41,1.22-2,1.34-2.06.09L27.76,213l-1.34-.33H25.48l-2.72,1.46a11.11,11.11,0,0,1-5.06,1.19l-0.81-.24-1.75.33-2.19.7L9,217H8.34a13.84,13.84,0,0,1-4.66,2.22,8.49,8.49,0,0,0-2.41.58c-0.71.27-.75,0.3-0.81,0.7A2.17,2.17,0,0,0,0,221.94C1,222.66,3.84,223,6,223c30.46,9.68,77.73.79,108.82,0.09,55.48-1.25,108.6,4.37,164.21.18,51.32-3.87,96.85,3.5,147.67,4.15,37.29,0.48,81.16-12.29,117.43-7.26a23.26,23.26,0,0,0,3.66-.43c1.67-.57,2.31-1.82,2.21-3.63-0.08-1,.1,1.81,0,0C549.92,215.1,550.1,217.91,550,216.1Z" transform="translate(0)"/><path class="cls-1" d="M150.3,205a3.86,3.86,0,0,1-1.12-.16l-0.16-.05a33.36,33.36,0,0,1-4.62-.67,13.71,13.71,0,0,1-1.83-1.18L141,203q-1.15.14-2.3,0.34a3.31,3.31,0,0,1-2.31,1,2.79,2.79,0,0,1-.87-0.14,2.84,2.84,0,0,1-1.87-1.87,3,3,0,0,1-.13-0.91c-0.73.28-1.44,0.66-2.15,1a7.45,7.45,0,0,1-2.77.78,3,3,0,0,1-.92-0.14,2.81,2.81,0,0,1-1.85-1.72,3,3,0,0,1-1.49.41,2.66,2.66,0,0,1-2-.87,2.82,2.82,0,0,1-.69-2.25,3.94,3.94,0,0,1,1.59-2.61,4.12,4.12,0,0,1,.26-2.11,3.72,3.72,0,0,1,1.52-1.54q1-.69,2.1-1.33a5.78,5.78,0,0,1,1.34-.48,3.82,3.82,0,0,1,1.38-2c3.17-2.3,6.87-5.4,10.55-6.7a8.5,8.5,0,0,1,2.15-.35h0.38q2.17-.42,4.35-0.73a30.87,30.87,0,0,0,4.11-.1,6.76,6.76,0,0,0,5.11-3.61l1.74-2.89L158.7,173a38.76,38.76,0,0,1,2.3-4q0.67-.79,1.37-1.55a13.33,13.33,0,0,1,1.34-1.94l0.81-.75q2.76-3.28,5.57-6.52a9.58,9.58,0,0,1,1.55-1.22c0.35-.41.66-0.86,1-1.26v-0.14a4.39,4.39,0,0,1,1.53-2.32l0.19-.17c1-1,1.55-2.29,2.49-3.23a4.47,4.47,0,0,1,.45-0.38v-0.07a7,7,0,0,1,.29-0.77,3.9,3.9,0,0,1,.69-1h0a4.71,4.71,0,0,1,.49-2A52.18,52.18,0,0,0,182,138.5c0.26-1.5.48-3.08,0.89-4.55q0.38-1.27.89-2.5,0.33-1.81.65-3.63a4.89,4.89,0,0,1,.06-0.94,50.75,50.75,0,0,1,3.06-9.34,2.87,2.87,0,0,1-.11-1.16A2.7,2.7,0,0,1,188,115h-0.88a4.05,4.05,0,0,1-.67.46A2.83,2.83,0,0,1,185,116a2.5,2.5,0,0,1-1.2-.3,3.21,3.21,0,0,1-1.36.43l-0.22.14a3,3,0,0,1-1.61.5,2.69,2.69,0,0,1-.76-0.11,3.13,3.13,0,0,1-1.95.89h-0.48a3.2,3.2,0,0,1-.57.23,3.74,3.74,0,0,1-1.07.15,4.63,4.63,0,0,1-.76-0.06,3,3,0,0,1-1.83.61,4.62,4.62,0,0,1-1.37-.24l-0.46.07a2.9,2.9,0,0,1-.54.9,3,3,0,0,1-1.73,1,3.23,3.23,0,0,1-.93.38,3.3,3.3,0,0,1-.75.09,2.88,2.88,0,0,1-.62-0.07l-0.28.18a6.71,6.71,0,0,1-1.26.61,3.4,3.4,0,0,1-1.17,1.12,3,3,0,0,1-.62,1.44,24.53,24.53,0,0,0-3.92,2.29,2.69,2.69,0,0,1-1.39.57l-0.16.11a20.67,20.67,0,0,0-3.2,1.7,2.67,2.67,0,0,1-1.6.53H153a2.63,2.63,0,0,1-1,1.68,2.84,2.84,0,0,1-1.27.61,2.77,2.77,0,0,1-.85.65q-1.61,1.88-3.29,3.7l-0.21.13a2.76,2.76,0,0,1-.48.67,2.64,2.64,0,0,1-1.91.81h0A2.91,2.91,0,0,1,141.9,140a9.33,9.33,0,0,1-3.14,1.95q-1.4.49-2.82,0.91a2.61,2.61,0,0,1-2.09-1,3.17,3.17,0,0,1-.43-2.82h0a3.15,3.15,0,0,1-.45-0.4h-0.31a2.88,2.88,0,0,1-1-.2,2.64,2.64,0,0,1-1.6-2,2.87,2.87,0,0,1-1-.44h-0.57a2.89,2.89,0,0,1-1.32.35h0a3.08,3.08,0,0,1-1.3-.28,2.88,2.88,0,0,1-.78.1A3.18,3.18,0,0,1,124,136h0a15.29,15.29,0,0,1-1.53.65,4.6,4.6,0,0,1-.66.14,3.24,3.24,0,0,1-1.25,1.13,2.92,2.92,0,0,1-1.32.3h-0.35q-0.59.32-1.19,0.62a3.09,3.09,0,0,1-.37.46,3.83,3.83,0,0,1-1.44.89h-0.05l-0.59.49a4.08,4.08,0,0,1-2.15.75h-0.2a17.06,17.06,0,0,1-1.63.62,4.17,4.17,0,0,1-1,.12c-0.75,0-1.31.14-2.12,0.14a48.72,48.72,0,0,1-7.16-1.06,7.26,7.26,0,0,1-1.15-.52H99.77a5,5,0,0,1-.82-0.36A3.25,3.25,0,0,1,97.63,139a2.93,2.93,0,0,1-1-1.44,19.66,19.66,0,0,0-.74-3.76,3.51,3.51,0,0,1,.36-1.45,3.94,3.94,0,0,1-.91-1.5,5.26,5.26,0,0,1-2-1.1,27.26,27.26,0,0,0-2.1-1.82,9.66,9.66,0,0,0-2-.05,7.19,7.19,0,0,1-2-.25q-2.43-.64-4.84-1.37a29.63,29.63,0,0,1-3.26-1.87,4.19,4.19,0,0,1-2-2.48c-1.72-.66-3.77-2.15-4.34-4.07a3.88,3.88,0,0,1,1.3-4.1,11.75,11.75,0,0,1,3-2l0.49-.18a3.71,3.71,0,0,1,.44-0.76,8.06,8.06,0,0,1,.94-1.16c0.12-.11.25-0.22,0.36-0.34A72.56,72.56,0,0,0,84.65,103l0.15-.25A5.1,5.1,0,0,1,86.3,101l0.33-.19c2-2.66,4.57-5,6.09-8A4.49,4.49,0,0,0,93.07,92l0.16-.66a4.52,4.52,0,0,1-.36-2.4,6.61,6.61,0,0,1-1.24-1.63l-0.13-.22a4.24,4.24,0,0,1-.23-3.8,23.62,23.62,0,0,1,1.94-3.5q0.8-1.47,1.49-3a4.07,4.07,0,0,1,.94-1.19c1.05-1.71,1.69-3.64,2.8-5.35q0.76-1,1.47-2.1V68.07a5.46,5.46,0,0,1,1.6-2l0.44-.31H102V65.69l0.28-.42q1.13-1.39,2.38-2.67a8.39,8.39,0,0,1-.38-1.6,6,6,0,0,1,.16-2.52,10,10,0,0,0,.2-1.13V57.22q0.47-1.81,1-3.59a8,8,0,0,1,1.64-3.8c0.16-.2.31-0.41,0.47-0.63A8.79,8.79,0,0,1,111.18,46a5.33,5.33,0,0,1,2.16-.43,5.82,5.82,0,0,1,3.48,1.06,3.39,3.39,0,0,1,.87,1,11.22,11.22,0,0,1,1.91,1,23.9,23.9,0,0,0,2.4,1.7l0.22-.09a10.82,10.82,0,0,1,2.32-.59l0.55,0a6.11,6.11,0,0,1,.45-0.5,3,3,0,0,1,.13-0.43A24.69,24.69,0,0,1,129,42.93a9.77,9.77,0,0,1,3-2.37l0.48-.28a2.23,2.23,0,0,0,.26-0.2,4.18,4.18,0,0,1,2.8-1.08h0.39a10.37,10.37,0,0,1,2.61.59,10.1,10.1,0,0,1,2.23,1.18h0a2.5,2.5,0,0,1,2,1.64,4.43,4.43,0,0,1,.8.88,5.14,5.14,0,0,1,.53-0.22,3.08,3.08,0,0,1,.3-0.43,4,4,0,0,1,.8-0.71h0c1.09-1,2.07-2.34,3.23-3.26a4.59,4.59,0,0,1,1.24-.7,6.06,6.06,0,0,1,.81-0.27,21.29,21.29,0,0,1,3.2-2.66,3.92,3.92,0,0,1,1.11-.39,3,3,0,0,1,1.48-.82,8.23,8.23,0,0,1,.92-0.75c1.72-1.1,3.77-1.87,5.58-2.84h0a3.94,3.94,0,0,1,1.41-.71,3.09,3.09,0,0,1,.64-0.07H165q0.51-.51,1-1.06a2.5,2.5,0,0,1,1.8-.76H168q1.83-1,3.71-1.79a3.89,3.89,0,0,1,1.29-1,3.14,3.14,0,0,1,1.38-.33,2.93,2.93,0,0,1,.58.06,4.33,4.33,0,0,1,1.47-.42H177a3.58,3.58,0,0,1,.89-0.71A19.09,19.09,0,0,1,180,22.6a31.39,31.39,0,0,1,4-2.6,5.31,5.31,0,0,1,1.1-.24,2.9,2.9,0,0,1,.74-0.66,3,3,0,0,1,1.53-.47A4.17,4.17,0,0,1,189,17.7V17.63a4.63,4.63,0,0,1,3.69-2.14h0.26a13.29,13.29,0,0,1,1.19-.6h0a5.38,5.38,0,0,1,1.09-1.31,2.84,2.84,0,0,1,.33-0.45l1-.93a3.32,3.32,0,0,1,1.7-.56h0c0.18-.16.36-0.32,0.55-0.46,0.5-.37,5.46-3.55,6.77-4.16l2-.69,1.72-1q0.94-.33,1.91-0.58a14.57,14.57,0,0,1,4.37-1.23h0.07A5.17,5.17,0,0,1,217,2.84a5,5,0,0,1,1.21-.15,6.78,6.78,0,0,0,1.11.07,3.32,3.32,0,0,1,1.47-.5h0.68A3.43,3.43,0,0,1,222.2,2a3.32,3.32,0,0,1,.93-0.13h0.31l0.48-.22A4.83,4.83,0,0,1,226,1h0.15a5.23,5.23,0,0,1,1,.11h0.05A6.41,6.41,0,0,1,228,.85a4.45,4.45,0,0,1,1-.13h0.39A3,3,0,0,1,231.31,0h0.39a2.66,2.66,0,0,1,1.68.82,11.25,11.25,0,0,1,4.42.27h0.15a3.58,3.58,0,0,1,.76-0.37A11.52,11.52,0,0,0,240.32.3h0.26A4.14,4.14,0,0,1,242,.61h0.46a4,4,0,0,1,1.45.4H244a7.88,7.88,0,0,1,1.67-.19,4.43,4.43,0,0,1,2,.44,3.71,3.71,0,0,1,1-.14h0.15a3.06,3.06,0,0,1,1.7.67,2.84,2.84,0,0,1,.69-0.08,2.77,2.77,0,0,1,2.42,1.45c0.62,0.08,1.24.14,1.86,0.16a3,3,0,0,1,2.34.95H258a3.21,3.21,0,0,1,1,.14,3.29,3.29,0,0,1,1.47.93,3.55,3.55,0,0,1,.94.18,2.92,2.92,0,0,1,.39.16H262a3.16,3.16,0,0,1,2.65,1.48,7.82,7.82,0,0,1,1.16.42,12.67,12.67,0,0,1,1.73,1.23h0.06a2.64,2.64,0,0,1,.63-0.08h0.11a3.05,3.05,0,0,1,2.89,2.09c1.61,0.3,3,2.21,4.66,2.57q1.79,0.47,3.59.91a5.67,5.67,0,0,1,.59.22,4.43,4.43,0,0,1,1.31-.22h0.16a4,4,0,0,1,1.82.57L283.45,15a70.16,70.16,0,0,0,7.11.57q1-.18,2-0.31c0.67,0,1.34.08,2,.08,1.37,0,2.68-.42,4.05-0.41,0.84,0,1.67.11,2.51,0.1l5.47-1.2h0.45a4,4,0,0,0,.91-0.11c7.24-1.42,14.8-2.32,21.94-4.11,0.69-.2,1.41-0.42,2.09-0.65a14.27,14.27,0,0,1,3.59-.63,21.16,21.16,0,0,1,4.2-.07q1.29-.3,2.61-0.47h2c2.35-.22,4.71-0.6,7.08-0.63q1.69,0.16,3.38.27c0.68,0,1.37-.06,2-0.06a5.09,5.09,0,0,1,1-.12,3.53,3.53,0,0,1,.62.05,4.39,4.39,0,0,1,1.4.53h0Q363,8.46,366,9h1.43a4.06,4.06,0,0,1,1.24.3,2.92,2.92,0,0,1,.93-0.15h0.19a2.9,2.9,0,0,1,1.5.53h1.07a19.61,19.61,0,0,1,5,.85,9.33,9.33,0,0,1,3.4,1.58c1.62,0,3.44,1.12,5,1.65A26.74,26.74,0,0,1,391.39,16a5.85,5.85,0,0,1,.55.37L392,16.44h0.26a4.42,4.42,0,0,1,3,1.08h0.54a3,3,0,0,1,2.75,1.58,5.52,5.52,0,0,1,1.6.64q0.54,0.34,1,.73a35,35,0,0,1,6.09,2.69l0.44,0.33h0a3.8,3.8,0,0,1,2.17.72,2.83,2.83,0,0,1,.8,1,15.88,15.88,0,0,1,2.07,1.12q0.44,0.35.9,0.67h0.1a4.21,4.21,0,0,1,1.8.87q0.44,0.42.84,0.87l0.35,0.13a4.93,4.93,0,0,1,2.48,1.72q0.36,0.58.69,1.17a12.67,12.67,0,0,0,1.22,1.16L421.31,33a4.81,4.81,0,0,1,2,1.4,18.51,18.51,0,0,1,1.33,2.06l0.18,0.08a5.17,5.17,0,0,1,1.78,1.22c2.07,2,4.53,4.42,5.89,7A4,4,0,0,1,434.06,46a5.49,5.49,0,0,1,.54.92V47a8.22,8.22,0,0,1,1.21.75,5,5,0,0,1,1.47,2.16l0.08,0.2a4.28,4.28,0,0,1,1.15,1q0.5,0.73,1,1.49c1.35,1.35,4.2,3.77,5,5.57a1.42,1.42,0,0,0,.1.29,3.43,3.43,0,0,1,.33.28,13.24,13.24,0,0,1,1.33,1.47,6,6,0,0,1,1,2.22,1.37,1.37,0,0,0,.11.38,6.61,6.61,0,0,0,1.26,2,13,13,0,0,1,1.22,1.51c0.83,1.51,1,3,1.75,4.51q0.45,0.82.89,1.65a2.91,2.91,0,0,1,.4,2.34,3.16,3.16,0,0,1-.13.43h0a7,7,0,0,1-.22,3.56A7.47,7.47,0,0,1,451.23,81l-0.37.43L451,81.67a22.9,22.9,0,0,0,1,2.74,5.7,5.7,0,0,1,.56,1.77,4.82,4.82,0,0,1,0,1.07h0q0.9,2.44,1.7,4.92a4.55,4.55,0,0,1,.21,1.72h0c0.52,0.78,1,1.6,1.49,2.41a5.07,5.07,0,0,1,.56,2.06q0,0.87.07,1.73a2.93,2.93,0,0,1-.09.32,5,5,0,0,1,.21.48,14.07,14.07,0,0,1,.64,2.38q0.29,1.79.53,3.58h0a6.33,6.33,0,0,1,.35.63,18.49,18.49,0,0,1,.56,1.8L459,109.6a5.5,5.5,0,0,1,.83,2.45,39.58,39.58,0,0,0,.12,5.5l0.08,0.2a5.34,5.34,0,0,1,.39,1.38,3.25,3.25,0,0,1-.24,1.72,0.52,0.52,0,0,0,.07.31,12.15,12.15,0,0,1,.06,1.31c0.23,3.76,1.28,7.51,1.27,11.31l0.09,0.2V134a3.3,3.3,0,0,1,.64,2.22,3,3,0,0,1-.26.89c0.09,0.23.16,0.46,0.22,0.66l0.06,0.11a3.93,3.93,0,0,1,.59,1.78,3,3,0,0,1,0,.73l0.08,0.16a2.88,2.88,0,0,1,.29,1.57,17.11,17.11,0,0,1,.7,1.75c0.51,2,.6,4.1,1.36,6.1a25.1,25.1,0,0,1,1.61,3.21h0a4.65,4.65,0,0,1,1.37,1.19,5.31,5.31,0,0,1,.91,2.34c0,0.57,1.88,1.83,1.89,1.84a6.75,6.75,0,0,1,1.18,1.92v0.1a11,11,0,0,0,.53,1.27,4.19,4.19,0,0,1,.46,1.71c0.42,0.55.71,1.19,1.1,1.76h0a4.3,4.3,0,0,1,.9,1.28,16.17,16.17,0,0,1,.6,3.17,4.48,4.48,0,0,1,.53,1,2.91,2.91,0,0,1,.07,2.1h0a12.44,12.44,0,0,1,.26,1.53,17.22,17.22,0,0,0,.36,4.24,6.73,6.73,0,0,1-.24,3.55l-1.37,4.37a2.75,2.75,0,0,1-1.66.55h0.09l-0.32.28a14,14,0,0,1-1.54.87c-3.39,2-6.58,4.4-9.77,6.72a0.46,0.46,0,0,1-.08.11,5.27,5.27,0,0,1-1,.93,4.7,4.7,0,0,1-1.8.75l-0.21.05a23.66,23.66,0,0,1-2.56,1.49h0a13.71,13.71,0,0,0-1.89.52,2.65,2.65,0,0,1-1.93-.85c-1.62.11-3.26-.28-4.88-0.29-2.63.07-5.3,0.5-7.93,0.65a11.4,11.4,0,0,1-1.69-.34h-0.16a4.45,4.45,0,0,1-1.76-.38,3,3,0,0,1-.69-0.46h-0.35a6.65,6.65,0,0,1-1.77-.28h-0.14a4.17,4.17,0,0,0-.94-0.24h-0.16l-2.54.65-0.29.13a5,5,0,0,1-2,.6h-0.4a2.73,2.73,0,0,1-1.87-1.16H425a2.72,2.72,0,0,1-2.29-2,2.5,2.5,0,0,1-1.82-2c-0.47-2.83,1.52-4.72,2.71-5.85a31.06,31.06,0,0,1,3-2.43,3.75,3.75,0,0,1,.57-1,39.84,39.84,0,0,1,3.57-3.2c0.89-.87,1.58-1.55,2.73-1.55a2.56,2.56,0,0,1,1.14.27,2.67,2.67,0,0,1,.33.2,24.19,24.19,0,0,1,8.76-1.2,3.26,3.26,0,0,1,1.28-.71h0a3.37,3.37,0,0,1,.46-0.49,3,3,0,0,1-.64-1,4.09,4.09,0,0,1-.93-1.08c-0.9-.31-1.9-0.52-2.8-0.8h-0.92a3,3,0,0,1-1-.35H438.9a3.33,3.33,0,0,1-.89-0.11,3.93,3.93,0,0,1-.86.2h-0.4a5.23,5.23,0,0,1-1-.11h-1.6a5.08,5.08,0,0,1-2-.53l-0.31-.13q-1.19-.26-2.39-0.46a5.67,5.67,0,0,1-2.29-.82l-0.35-.19h-0.09a4,4,0,0,1-2.17-.59,3.26,3.26,0,0,1-.54-0.46,3.72,3.72,0,0,1-.49,0,5,5,0,0,1-2.12-.54l-0.12-.05a4.42,4.42,0,0,1-1.06-.62H419.9a26.13,26.13,0,0,1-3.38-1.24,4.14,4.14,0,0,1-1.79-1.1l-0.17-.21a2.72,2.72,0,0,1-2.28-1.54l-0.12-.22a4,4,0,0,1-.61-0.58l-0.4-.06a3,3,0,0,1-2.36-1.73h0a3.51,3.51,0,0,1-.43-0.15,3.12,3.12,0,0,1-1.9-2.44q-0.18-.44-0.39-0.87a3.44,3.44,0,0,1-1.58-1.57,3.93,3.93,0,0,1-.36-1.07,33,33,0,0,0-2.58-4.72L401,152a2.86,2.86,0,0,1-.89,1.63,2.5,2.5,0,0,1-1.68.65,2.57,2.57,0,0,1-.41,0l-0.25.31a18.55,18.55,0,0,1-3.83,3.2,3.94,3.94,0,0,1-1.34,1.35,13.54,13.54,0,0,1-1.33.63,2.5,2.5,0,0,1-1.21.31h-0.31a3.06,3.06,0,0,1-.69.47l-0.35.16a8.14,8.14,0,0,1-.58.79h0a3.85,3.85,0,0,1-1,1.24,3,3,0,0,1-1,.53,8.81,8.81,0,0,0-1.66,1.84,3.12,3.12,0,0,1-.61.27,4,4,0,0,1-.81,1.73,4.74,4.74,0,0,1-3,2.08,2.88,2.88,0,0,1-1.72.89c-0.17.35-.32,0.7-0.48,1.06a2.8,2.8,0,0,1-2.6,1.81,3,3,0,0,1-.49,0,3.72,3.72,0,0,1-.59.33,9.34,9.34,0,0,1-1.65,1.71,3.75,3.75,0,0,1-.62.38,3.2,3.2,0,0,1-.47.74l-0.15.16a18.43,18.43,0,0,0-1.06,2.71,2.88,2.88,0,0,1-1.5,1l-0.4.43a3.32,3.32,0,0,1-1.17,2.47,2.75,2.75,0,0,1-1.61.55q-0.74.77-1.41,1.59l-0.1.16c-0.53.89-1.35,1.61-1.89,2.53a4.86,4.86,0,0,1-1.19,1.45c-0.15.12-.29,0.21-0.41,0.29q-0.43.61-.9,1.19a1.39,1.39,0,0,1-.06.19,7,7,0,0,1-.36.82l-0.53.88-0.1.32a2.67,2.67,0,0,1,.25.42,2.61,2.61,0,0,1,0,2.24,2.87,2.87,0,0,1-2.71,1.6,4.32,4.32,0,0,1-1.18-.17,3,3,0,0,1-.9.14h-0.29a4.17,4.17,0,0,1-1.78.6h-0.16c-0.9.23-1.76,0.42-2.62,0.57a7.37,7.37,0,0,1-1.28.11c-0.64,0-1.28-.08-1.92-0.07q-2.09.24-4.19,0.44a7.84,7.84,0,0,1-1.52-.14A6.46,6.46,0,0,0,339,198q-1.86.21-3.71,0.5h-0.51a6,6,0,0,0-2.34.53l-0.14.07a4.85,4.85,0,0,1-2.13.57q-1.09,0-2.18.08l-1.76-.74a3.67,3.67,0,0,1-.62.28,10.43,10.43,0,0,1-3.25.42h-0.18a5.53,5.53,0,0,1-1.45-.2h-0.07a10.56,10.56,0,0,1-1.83.33,4.44,4.44,0,0,1-.85-0.08,3.82,3.82,0,0,1-1.23-.47h-0.47a4.16,4.16,0,0,1-1.43-.23,4.81,4.81,0,0,1-1.93-1.41,11.63,11.63,0,0,1-1.58.05,4.3,4.3,0,0,1-2.32.8,3,3,0,0,1-.8-0.11,2.83,2.83,0,0,1-1.69-1.23,3.39,3.39,0,0,1-1.67.48A2.75,2.75,0,0,1,303,197a3,3,0,0,1-.63.1h-0.23q-2.65-1.05-5.21-2.32a2.5,2.5,0,0,1-.09-0.31,3.76,3.76,0,0,1-.09-0.78l-0.14-.16a3.16,3.16,0,0,1-.4-2.89,10,10,0,0,1,1.58-3.16l0.06-.08a4.38,4.38,0,0,1,.87-0.93,3.4,3.4,0,0,1,.94-0.5,3.89,3.89,0,0,1,.49-0.62,7,7,0,0,1,1.39-1.07,55.69,55.69,0,0,1,5.14-2.45q0.32-.35.66-0.67a9.07,9.07,0,0,1,4.78-2,64.75,64.75,0,0,1,12.6-1.09,4.37,4.37,0,0,0,1.1-.17,20.31,20.31,0,0,1,2.49-.14,3.9,3.9,0,0,1,.5-0.93l0.28-.41a3.46,3.46,0,0,1-.32-2.2v-0.35a3.15,3.15,0,0,1-.36-1.33,2.55,2.55,0,0,1,0-.3,0.4,0.4,0,0,0,0-.23c-0.51-2.38-.13-5.55-0.37-8a4.23,4.23,0,0,0,.13-0.88l-0.15-.28a5,5,0,0,1-.66-2,4.81,4.81,0,0,1,0-1.07l-0.2-.71a19,19,0,0,1-.23-4.38,23,23,0,0,1-.81-3.46c0-.12.34-2.69,0.51-3.51,0-.13.06-2.1,0.06-2.88a2.91,2.91,0,0,1-.55-3.48l0.11-.25a2.63,2.63,0,0,1-.16-0.91,2.49,2.49,0,0,1,.58-1.61v-0.21a2.82,2.82,0,0,1-1,.18h0.06a2.72,2.72,0,0,1-1.3-.42h-0.86a3.2,3.2,0,0,1-2,.72,2.84,2.84,0,0,1-1.2-.26,2.75,2.75,0,0,1-.53.05,2.64,2.64,0,0,1-2-.93,2.73,2.73,0,0,1-.27-0.39,2.58,2.58,0,0,1-.62-0.28h-0.13a2.82,2.82,0,0,1-1.94-.75,5.54,5.54,0,0,1-1.39.17,3.62,3.62,0,0,1-1.11-.15,3.45,3.45,0,0,1-.86-0.41,2.56,2.56,0,0,1-.42,0,2.8,2.8,0,0,1-1-.19,3.15,3.15,0,0,1-.92.14,2.78,2.78,0,0,1-1-.19h0a3,3,0,0,1-1.51.43,2.64,2.64,0,0,1-1.44-.43,4.55,4.55,0,0,1-1.6.33,2.92,2.92,0,0,1-1.51-.4h0a2.74,2.74,0,0,1-1.17.26,3.11,3.11,0,0,1-1.57-.44l-0.15-.09a17,17,0,0,0-2.5.1l0.12,0.33L297,136a3.11,3.11,0,0,1,.66,2.11,2.93,2.93,0,0,1,0,.32h0l0.11,0.11a8.13,8.13,0,0,1,1.54,2.52,6.32,6.32,0,0,1,.33,1.33v0.26l0.19,0.27a6.62,6.62,0,0,1,1,1.8l0.28,0.91,0.12,0.19a4,4,0,0,1,.75,2.91,25.44,25.44,0,0,1,2.18,3.16,0.83,0.83,0,0,0,.12.26c0.39,0.67.53,2.72,0.94,3.83l0.19,0.18a4.71,4.71,0,0,1,1.36,2.33,13.31,13.31,0,0,1,.58,2.61q0,1.72-.15,3.43a3.53,3.53,0,0,1-.36,1.36,3,3,0,0,1-.21.35v0.19a3,3,0,0,1-.42,2.48,2.67,2.67,0,0,1-1,.85,3.55,3.55,0,0,1-.46.94h0a3.46,3.46,0,0,1,0,.38,2.83,2.83,0,0,1-1.86,3,3,3,0,0,1,0,.51,36.47,36.47,0,0,0-1.59,3.53q-1.09,1.31-2.14,2.66v0.67a4.88,4.88,0,0,1-.73,2.09,2.49,2.49,0,0,0-.15.28,3.44,3.44,0,0,1-.52,1.7,3.17,3.17,0,0,1-.91.89,4.16,4.16,0,0,1-1,1.64,5.68,5.68,0,0,1-2.46,1.33q-0.61.2-1.24,0.36h-0.21l-0.17.21a3,3,0,0,1-1.68,1.1,3.8,3.8,0,0,1-1,.13,4.73,4.73,0,0,1-1.16-.15,3.21,3.21,0,0,1-.69.17,2.67,2.67,0,0,1-1.55.93,3.25,3.25,0,0,1-.53.05,2.76,2.76,0,0,1-1.55-.47,3,3,0,0,1-.89.14,2.69,2.69,0,0,1-1.19-.3h-2a3,3,0,0,1-.94.25h-0.28a3.61,3.61,0,0,1-2-.67h-0.87a4.38,4.38,0,0,1-1.65.29h-1.26l-1.84.56a27,27,0,0,1-3.9.56c-1.3,0-2.58-.3-3.87-0.41a3.87,3.87,0,0,1-1.13.19h-0.2a9.63,9.63,0,0,1-1.57-.34,8.63,8.63,0,0,0-1.13.26,3.64,3.64,0,0,1-.54.34,2.58,2.58,0,0,1-1.8,1.47,2.78,2.78,0,0,1-.6.07,3.46,3.46,0,0,1-2-.73,4.26,4.26,0,0,1-.79.08,2.93,2.93,0,0,1-2.11-.84,2.72,2.72,0,0,1-.53-0.76,2.6,2.6,0,0,1-1.18-1.13,2.56,2.56,0,0,1-.07-2.2l-0.05-.09a2.94,2.94,0,0,1,.28-3.07,33.68,33.68,0,0,1,6.4-7.81,3.38,3.38,0,0,1,.65-0.39,3.86,3.86,0,0,1,1.11-.89c0.87-.47,1.72-1.07,2.55-1.61a7.74,7.74,0,0,1,2.28-1.09q0.91-.18,1.8-0.4l0.34-.17a8.19,8.19,0,0,1,3-1,41.29,41.29,0,0,1,4.55-.07,5.09,5.09,0,0,0-1.25-1.94q-1.15-.6-2.25-1.3-2.06-2.37-4.33-4.53a5.5,5.5,0,0,1-.63-1v-0.09a29.39,29.39,0,0,1-3.45-2.51h0a3.89,3.89,0,0,1-2-1,4.63,4.63,0,0,1-.94-1.25,3.16,3.16,0,0,1-2.06-1.91,5.94,5.94,0,0,1-.31-1v-0.07h0a5.32,5.32,0,0,1-.84-0.86,3.75,3.75,0,0,1-2.32-1.41q-0.32-.46-0.62-0.94-0.52-.31-1-0.65H250a3.75,3.75,0,0,1-1.28-.88,3.4,3.4,0,0,1-.49-0.73H248a3.54,3.54,0,0,1-2.86-3.11h-0.06a2.81,2.81,0,0,1-1.13-2,3.23,3.23,0,0,1-1.12-.88,2.4,2.4,0,0,1-.44-0.84,8,8,0,0,1-.73.61,2.5,2.5,0,0,1-1.35,2l-0.06.15v0.08a3.83,3.83,0,0,1-1.11,1.76l-0.16.13a3.48,3.48,0,0,1-1.2,2.25,3.42,3.42,0,0,1-.7.44,8.56,8.56,0,0,1-1.36,2.09,2.68,2.68,0,0,1-.35,1.61,3.29,3.29,0,0,1-1.9,1.4h0a3.18,3.18,0,0,1-.13.29,16.29,16.29,0,0,0-1.68,1.72,2.84,2.84,0,0,1-.53,2.06,2.68,2.68,0,0,1-1.52,1,3.2,3.2,0,0,1-1.9.81l-0.08.11a6.84,6.84,0,0,1-1,1.08,3.81,3.81,0,0,1-.93.61,2.84,2.84,0,0,1-.12.35v0.12a2.63,2.63,0,0,1-2.38,1.71h-0.11a3.3,3.3,0,0,1-2.41,2.79,2.88,2.88,0,0,1-.34.54,3.35,3.35,0,0,1-1.43,1,3.59,3.59,0,0,1-.72.7,3.75,3.75,0,0,1-2.8,1.71,3.42,3.42,0,0,1-1.63,1.49l-0.31.15a25.52,25.52,0,0,0-3.76,2.76l-0.39.18v0.1a22.47,22.47,0,0,1-2.64,2,4,4,0,0,1-.56.27,4.18,4.18,0,0,1-.41.89,4,4,0,0,1-2.07,1.7,5.29,5.29,0,0,1-.94,1.49,5.87,5.87,0,0,1-2,1.44,3.26,3.26,0,0,0-.47.25,25.42,25.42,0,0,1-3.12,3.11h0a2.75,2.75,0,0,1-.42.44,2.63,2.63,0,0,1-1.48.59,3.16,3.16,0,0,1-1.75,1.46,2.53,2.53,0,0,1-.46.13q-1.1,3-3.3,2.48a3,3,0,0,1-.83.27,2.73,2.73,0,0,1-2,1.54,2.78,2.78,0,0,1-.29.49,2.74,2.74,0,0,1-1.84,1.07h-0.84a3.28,3.28,0,0,1-.68.16,3.42,3.42,0,0,1-.65.75,3,3,0,0,1-.88.52,2.64,2.64,0,0,1-.51.55,2.77,2.77,0,0,1-1.8.6h-1.1a4.27,4.27,0,0,1-1.46,1.32h-0.08a4.07,4.07,0,0,1-.39.44,16.92,16.92,0,0,1-3.3,2,2.5,2.5,0,0,1-1.55.54h0a2.52,2.52,0,0,1-.64-0.08,4.41,4.41,0,0,1-1-.26q-2.69-.1-5.39-0.11-2.24.3-4.48,0.55h-0.18a3.26,3.26,0,0,1-1.74-.41l-0.12.09a4.7,4.7,0,0,1-2.82.85h-0.87a5.74,5.74,0,0,1-2.19.9l-0.25.07a5.29,5.29,0,0,1-1.55,0C149.92,205,150.81,205.07,150.3,205Z" transform="translate(0)"/></svg>