<svg id="svg576" xmlns="http://www.w3.org/2000/svg" viewBox="0 0 402.66 205.4"><defs><style>.cls-1{fill:#fff;}</style></defs><title>bear-white</title><path class="cls-1" d="M77.76,205c-2.17,0-27.44-3.12-28.1-4.68-3.4-8,16.92-17.56,20.77-18.81,12.06-1,25.64-18.62,31.47-28.32,7.43-6.73,21.16-38.39,8-37.08-2.84,1.92-7.8,1.45-11.08,2.17-0.73,1.85-14.23,10.27-16.55,10.33a48.54,48.54,0,0,1-4.86,3.46c-2,2.29-8.26,9.76-11.16,9.87-4.64,3.26-4-1.51-5.77-3.39a10.58,10.58,0,0,0-4-2.58c-11.71.95-16.64,5.4-29.38,4.7-3.78-1.15-3.6-7.12-4.43-9.9-40.65-9.2-6.23-20.28-2-39.39a4.52,4.52,0,0,1-.36-2.4,6.61,6.61,0,0,1-1.24-1.63l-0.13-.22c-1.48-4.74,6.1-15.9,8.44-19,6.4-12.23,6.21-25.52,22.32-17.8,5-1.95,7.86-2.46,10.3-10,19.39-11.54,1.49,6.3,11.57,2.81a1.65,1.65,0,0,1,1.11-1.14c4.5-4.91,11.59-8.75,17.52-11.72,8.87-6.32,21.49-10.68,31.41-15.36,1-1.54,33.34-20.24,39.23-14,2.63-.51,5.9.31,8.71-0.2,9.71,0,16.89,5.24,25.59,8.2,3.38-.84,11.15,5.52,15.76,6.13,19.23,7.71,52.78-7.76,73.42-7.56a4.85,4.85,0,0,1,3.1.49c42.6,7,96.26,37.31,94.51,86,7.77,11.3,1.73,28.47,7.25,40.13l0,0.06a9.63,9.63,0,0,0,.6,3.77C394.57,146.73,396,157,402,165.42c11.55,12-6.31,29.53-17.94,33h0c-57.4,16.71-13.76-27.91-11.89-22.84a4.09,4.09,0,0,1-.93-1.08c-6.9-2.8-15.25-2.71-22.56-4.91a4.42,4.42,0,0,1-1.06-.62c-2.75-.28-6.85-2.83-8.64-4.94a3.46,3.46,0,0,1-2.78-1.82c-2.7-.73-6.06-11.32-7.81-10.58a8.47,8.47,0,0,0-3.24,2.56c-2.65,3.32-7.16,3.78-9.66,6.9l0,0c-1,2.22-8,8.31-9.73,8.58a15.7,15.7,0,0,1-4.17,3.15,4.06,4.06,0,0,1-.52.64c-3.22,3.65-6.36,7.48-9.61,11.2-1.67,2.59-4.51,4.59-5.46,7.67,3,4.17-3.49,3.56-4.83,4.23-6.95,4.39-14.55-.65-21.24,2.4l-0.14.07c-2.66,1.49-16.93,1.29-19.42-1.47-9.87,1.1-15.79-.76-15.06-10.32,6.33-9.59,30-5.49,31-13.17v-0.06c0-.1,0-0.19,0-0.29-1.07-2.14-1.2-7.46-.77-9.54a9.91,9.91,0,0,0-.79-5.17c-0.86-3.24-1.21-10.28-.47-13.65l0-.18c0-.13,0-0.26,0-0.4-1-1.51-.41-4.68,0-6.46-5.85,2.25-30.48-9-29.34.08,1.19,1.21,2.63,5.47,3.62,7.38a4,4,0,0,1,.75,2.91c1.22,2,2.29,5.1,3.42,7.43,3.4,3.54,2,10.81-.62,14.55h0c1.14,7.13-11.52,19.67-17.47,20.51-3.6,4.2-24-1.09-28.93,1.37-1.36,2.83-11.93-10,6.29-19.57q10.8,2,6.32-3c-4.06-3.47-6.57-6.66-10.72-9.44-2.51-.53-3.73-3.64-5.34-5.26a5.32,5.32,0,0,1-.84-0.86c-0.11,0-2.92-2.38-4-3-2.1-.83-6.62-9.2-8.33-8a2.5,2.5,0,0,1-1.35,2c-1.69,3.46-4.57,6.85-6.89,9.91-0.59,1.52-4,5.72-5.76,5.9-1,1.39-6,6.51-7.05,6.78a33.36,33.36,0,0,0-2.5,2.26,3.75,3.75,0,0,1-2.8,1.71c-2.5,3.74-14.73,14.33-18.44,15.81a11.08,11.08,0,0,0-3.66,2.49,2.53,2.53,0,0,1-.46.13,7.63,7.63,0,0,1-4.13,2.74,2.73,2.73,0,0,1-2,1.54,8.2,8.2,0,0,1-3.67,1.69c-4,6.17-17,7.43-23.21,6.79a3.26,3.26,0,0,1-1.74-.41,6.06,6.06,0,0,1-3.19.95,5.54,5.54,0,0,1-.62,0A10.26,10.26,0,0,1,77.76,205Z" transform="translate(-3.06 0.42)"/></svg>